<svg width="57" height="57" viewBox="0 0 57 57" fill="none" xmlns="http://www.w3.org/2000/svg">
<path d="M21.3305 52.4134C21.1078 52.4134 20.9742 52.3689 20.7961 52.2798C19.9945 51.7454 16.2094 48.9399 19.3711 43.3735C20.2172 41.8595 20.4398 40.6571 20.1281 39.6774C19.7719 38.5642 18.6141 38.1189 18.6141 38.1189C18.0797 37.8962 17.8125 37.2728 18.0352 36.7384C18.2133 36.2931 18.5695 36.0259 19.0148 36.0259C19.1484 36.0259 19.282 36.0704 19.4156 36.1149C19.5938 36.1149 21.4641 36.9165 22.2211 38.9204C22.8 40.5235 22.4883 42.3939 21.2859 44.4868C19.0594 48.4056 21.4195 50.1423 21.9094 50.454C22.3992 50.7212 22.5773 51.3892 22.3102 51.9235C22.043 52.2798 21.6422 52.4134 21.3305 52.4134ZM28.5445 50.0532C28.3219 50.0532 28.1883 50.0087 28.0102 49.9196C26.407 48.9845 24.1359 46.0899 26.6742 41.5478C27.4313 40.1673 27.6539 39.054 27.3422 38.2079C27.0305 37.2282 26.0063 36.8274 26.0063 36.8274C25.4273 36.6048 25.1602 36.0259 25.3828 35.447C25.5609 35.0017 25.9172 34.7345 26.3625 34.7345C26.4961 34.7345 26.6297 34.779 26.7633 34.8235C27.2086 35.0017 28.7672 35.7142 29.3906 37.4954C29.925 39.0095 29.6578 40.7462 28.5445 42.661C26.407 46.4907 28.9898 48.0493 29.1234 48.0939C29.3461 48.2274 29.5242 48.4501 29.6133 48.7173C29.7023 48.9845 29.6578 49.2962 29.5242 49.5634C29.257 49.9196 28.8563 50.0532 28.5445 50.0532ZM13.7602 50.0532C13.5375 50.0532 13.4039 50.0087 13.2258 49.9196C11.6227 48.9845 9.35156 46.0899 11.8898 41.5478C12.6469 40.1673 12.8695 39.054 12.5578 38.2079C12.2461 37.2282 11.2219 36.8274 11.2219 36.8274C10.643 36.6048 10.3758 36.0259 10.5984 35.447C10.7766 35.0017 11.1328 34.7345 11.5781 34.7345C11.7117 34.7345 11.8453 34.779 11.9789 34.8235C12.4242 35.0017 13.9828 35.7587 14.6063 37.4954C15.1406 39.0095 14.8289 40.7462 13.7602 42.7056C11.6227 46.5353 14.2055 48.0938 14.3391 48.1384C14.5617 48.272 14.7398 48.4946 14.8289 48.7618C14.918 49.029 14.8734 49.3407 14.7398 49.6079C14.5172 49.9196 14.0719 50.0532 13.7602 50.0532ZM40.8797 46.0899C40.5234 46.0899 40.2562 45.9564 40.0336 45.7337C39.8109 45.511 39.6773 45.1993 39.6773 44.8876C39.6773 44.3978 39.9891 43.9524 40.4344 43.7298H40.4789V41.3251L38.2078 42.6165V42.661C38.2078 43.0173 38.0742 43.4626 37.6289 43.6853C37.4508 43.8189 37.2281 43.8634 37.0055 43.8634C36.5602 43.8634 36.1594 43.6407 35.9813 43.2845C35.8031 42.9728 35.7586 42.661 35.8477 42.3493C35.9367 42.0376 36.1148 41.7704 36.4266 41.6368C36.6047 41.5032 36.8273 41.4587 37.0055 41.4587C37.2281 41.4587 37.4508 41.5032 37.6289 41.6368L39.6773 40.479L37.6734 39.3212C37.4062 39.4103 37.1836 39.4548 37.0055 39.4548C36.7828 39.4548 36.6047 39.4103 36.4266 39.3212C35.8922 38.9649 35.6695 38.2079 35.9813 37.6735C36.2039 37.3173 36.6047 37.0946 37.05 37.0946C37.2727 37.0946 37.4953 37.1392 37.6734 37.2728C38.0297 37.4954 38.2523 37.8517 38.2523 38.297V38.3415L40.5234 39.6329V37.2282H40.4789C40.0336 37.0056 39.7219 36.5603 39.7219 36.0704C39.7219 35.4024 40.2562 34.8681 40.9242 34.8681C41.2805 34.8681 41.5922 35.0017 41.8148 35.2243C42.0375 35.447 42.1711 35.7587 42.1711 36.0704C42.1711 36.4712 41.9484 36.872 41.5477 37.0946H41.4141V39.4103L43.3734 38.297V38.2524C43.3734 37.8962 43.507 37.4509 43.9523 37.2282C44.1305 37.0946 44.3531 37.0501 44.5758 37.0501C45.0211 37.0501 45.4219 37.2728 45.6 37.629C45.7781 37.9407 45.8227 38.2524 45.7336 38.5642C45.6445 38.8759 45.4664 39.1431 45.1547 39.2767C44.9766 39.4103 44.7539 39.4548 44.5758 39.4548C44.3531 39.4548 44.1305 39.4103 43.9523 39.2767L41.9039 40.4345L43.9078 41.5923C44.175 41.5032 44.3977 41.4587 44.5758 41.4587C44.7984 41.4587 44.9766 41.5032 45.1547 41.5923C45.6891 41.9485 45.9117 42.7056 45.6 43.2399C45.3773 43.5962 44.9766 43.8189 44.5312 43.8189C44.3086 43.8189 44.0859 43.7743 43.9078 43.6407C43.5516 43.4181 43.3289 43.0618 43.3289 42.6165V42.572L41.4141 41.5032V43.8189H41.4586C41.8594 43.997 42.082 44.3978 42.082 44.8431C42.082 45.5556 41.5477 46.0899 40.8797 46.0899ZM8.46094 32.0181C5.07656 32.0181 2.36016 29.3017 2.36016 25.9173V11.4001C2.36016 8.01572 5.07656 5.29932 8.46094 5.29932H48.6281C52.0125 5.29932 54.7289 8.01572 54.7289 11.4001V25.9173C54.7289 29.3017 52.0125 32.0181 48.6281 32.0181H8.46094ZM7.8375 7.97119C6.23438 7.97119 4.94297 9.30713 4.94297 10.9993V26.4962C4.94297 28.1438 6.23438 29.5243 7.8375 29.5243H49.207C50.8102 29.5243 52.1016 28.1884 52.1016 26.4962V10.9993C52.1016 9.35166 50.8102 7.97119 49.207 7.97119H7.8375ZM9.03984 25.3384C8.46094 25.3384 7.97109 24.8485 7.97109 24.2696C7.97109 23.6907 8.46094 23.2009 9.03984 23.2009H47.025C47.6039 23.2009 48.0938 23.6907 48.0938 24.2696C48.0938 24.8485 47.6039 25.3384 47.025 25.3384H9.03984ZM9.03984 20.8407C8.46094 20.8407 7.97109 20.3509 7.97109 19.772C7.97109 19.1931 8.46094 18.7032 9.03984 18.7032H47.025C47.6039 18.7032 48.0938 19.1931 48.0938 19.772C48.0938 20.3509 47.6039 20.8407 47.025 20.8407H9.03984Z" fill="url(#paint0_linear_87_30)"/>
<defs>
<linearGradient id="paint0_linear_87_30" x1="54.7289" y1="28.8563" x2="-6.72205" y2="28.8563" gradientUnits="userSpaceOnUse">
<stop stop-color="#2B4560"/>
<stop offset="1" stop-color="#009ECF"/>
</linearGradient>
</defs>
</svg>
