<svg width="58" height="57" viewBox="0 0 58 57" fill="none" xmlns="http://www.w3.org/2000/svg">
<path d="M57 28.4298C57 43.5602 44.4828 55.8595 29 55.8595C13.5172 55.8595 1 43.5602 1 28.4298C1 13.2993 13.5172 1 29 1C44.4828 1 57 13.2993 57 28.4298Z" stroke="url(#paint0_linear_5_112)" stroke-width="2"/>
<g clip-path="url(#clip0_5_112)">
<path d="M29.2344 24.3203L19.2148 34.3516C18.9883 34.5781 18.8125 34.8398 18.6875 35.1367C18.5625 35.4336 18.5 35.7461 18.5 36.0742C18.5 36.4023 18.5625 36.7148 18.6875 37.0117C18.8125 37.3086 18.9883 37.5664 19.2148 37.7852C19.4414 38.0039 19.6992 38.1758 19.9883 38.3008C20.2773 38.4258 20.5898 38.4922 20.9258 38.5C21.2461 38.5 21.5547 38.4375 21.8516 38.3125C22.1484 38.1875 22.4141 38.0117 22.6484 37.7852L29 31.4453V33.5664L23.7148 38.8516C23.3398 39.2266 22.9141 39.5117 22.4375 39.707C21.9609 39.9023 21.457 40 20.9258 40C20.3867 40 19.8828 39.8984 19.4141 39.6953C18.9453 39.4922 18.5273 39.207 18.1602 38.8398C17.793 38.4727 17.5117 38.0586 17.3164 37.5977C17.1211 37.1367 17.0156 36.6289 17 36.0742C17 35.5352 17.0977 35.0312 17.293 34.5625C17.4883 34.0938 17.7734 33.668 18.1484 33.2852L27.5938 23.8398C27.5625 23.6602 27.5391 23.4805 27.5234 23.3008C27.5078 23.1211 27.5 22.9375 27.5 22.75C27.5 22.1328 27.5781 21.5391 27.7344 20.9688C27.8906 20.3984 28.1172 19.8594 28.4141 19.3516C28.7109 18.8438 29.0664 18.3867 29.4805 17.9805C29.8945 17.5742 30.3516 17.2227 30.8516 16.9258C31.3516 16.6289 31.8867 16.4023 32.457 16.2461C33.0273 16.0898 33.625 16.0078 34.25 16C34.6719 16 35.0586 16.0312 35.4102 16.0938C35.7617 16.1562 36.1055 16.25 36.4414 16.375C36.7773 16.5 37.1016 16.6484 37.4141 16.8203C37.7266 16.9922 38.0625 17.1797 38.4219 17.3828L33.8047 22L35 23.1953L39.6172 18.5781C39.8047 18.9062 39.9805 19.2344 40.1445 19.5625C40.3086 19.8906 40.457 20.2305 40.5898 20.582C40.7227 20.9336 40.8281 21.2852 40.9062 21.6367C40.9844 21.9883 41.0234 22.3633 41.0234 22.7617C41.0234 23.2773 40.9609 23.7891 40.8359 24.2969C40.7109 24.8047 40.5273 25.2891 40.2852 25.75C40.043 26.2109 39.7617 26.6445 39.4414 27.0508C39.1211 27.457 38.75 27.8164 38.3281 28.1289C37.9688 27.9883 37.6016 27.8789 37.2266 27.8008C36.8516 27.7227 36.4688 27.6758 36.0781 27.6602C36.5859 27.4727 37.0508 27.2148 37.4727 26.8867C37.8945 26.5586 38.2539 26.1836 38.5508 25.7617C38.8477 25.3398 39.082 24.875 39.2539 24.3672C39.4258 23.8594 39.5078 23.332 39.5 22.7852C39.5 22.1992 39.4062 21.6367 39.2188 21.0977L35 25.3047L31.6953 22L35.9023 17.7812C35.3711 17.5938 34.8203 17.5 34.25 17.5C33.5234 17.5 32.8438 17.6367 32.2109 17.9102C31.5781 18.1836 31.0234 18.5586 30.5469 19.0352C30.0703 19.5117 29.6953 20.0664 29.4219 20.6992C29.1484 21.332 29.0078 22.0156 29 22.75C29 23.0156 29.0234 23.2773 29.0703 23.5352C29.1172 23.793 29.1719 24.0547 29.2344 24.3203ZM35.75 29.5C36.4766 29.5 37.1562 29.6367 37.7891 29.9102C38.4219 30.1836 38.9805 30.5586 39.4648 31.0352C39.9492 31.5117 40.3242 32.0664 40.5898 32.6992C40.8555 33.332 40.9922 34.0156 41 34.75C41 35.4766 40.8633 36.1562 40.5898 36.7891C40.3164 37.4219 39.9414 37.9805 39.4648 38.4648C38.9883 38.9492 38.4336 39.3242 37.8008 39.5898C37.168 39.8555 36.4844 39.9922 35.75 40C35.0234 40 34.3438 39.8633 33.7109 39.5898C33.0781 39.3164 32.5195 38.9414 32.0352 38.4648C31.5508 37.9883 31.1758 37.4336 30.9102 36.8008C30.6445 36.168 30.5078 35.4844 30.5 34.75C30.5 34.0234 30.6367 33.3438 30.9102 32.7109C31.1836 32.0781 31.5586 31.5195 32.0352 31.0352C32.5117 30.5508 33.0664 30.1758 33.6992 29.9102C34.332 29.6445 35.0156 29.5078 35.75 29.5ZM32 34.75C32 35.2656 32.0977 35.75 32.293 36.2031C32.4883 36.6562 32.7539 37.0547 33.0898 37.3984C33.4258 37.7422 33.8242 38.0117 34.2852 38.207C34.7461 38.4023 35.2344 38.5 35.75 38.5C36.1172 38.5 36.4766 38.4492 36.8281 38.3477C37.1797 38.2461 37.5078 38.0898 37.8125 37.8789L32.6211 32.6875C32.418 32.9922 32.2656 33.3203 32.1641 33.6719C32.0625 34.0234 32.0078 34.3828 32 34.75ZM38.8789 36.8125C39.082 36.5078 39.2344 36.1797 39.3359 35.8281C39.4375 35.4766 39.4922 35.1172 39.5 34.75C39.5 34.2344 39.4023 33.75 39.207 33.2969C39.0117 32.8438 38.7422 32.4492 38.3984 32.1133C38.0547 31.7773 37.6562 31.5078 37.2031 31.3047C36.75 31.1016 36.2656 31 35.75 31C35.3828 31 35.0234 31.0508 34.6719 31.1523C34.3203 31.2539 33.9922 31.4102 33.6875 31.6211L38.8789 36.8125Z" fill="url(#paint1_linear_5_112)"/>
</g>
<defs>
<linearGradient id="paint0_linear_5_112" x1="0.640882" y1="0.628283" x2="56.0603" y2="57.9601" gradientUnits="userSpaceOnUse">
<stop stop-color="#00AEEF"/>
<stop offset="1" stop-color="#00749F"/>
</linearGradient>
<linearGradient id="paint1_linear_5_112" x1="41.0234" y1="28" x2="12.8337" y2="28" gradientUnits="userSpaceOnUse">
<stop stop-color="#2B4560"/>
<stop offset="1" stop-color="#009ECF"/>
</linearGradient>
<clipPath id="clip0_5_112">
<rect width="24" height="24" fill="white" transform="translate(17 16)"/>
</clipPath>
</defs>
</svg>
