<svg width="58" height="58" viewBox="0 0 58 58" fill="none" xmlns="http://www.w3.org/2000/svg">
<path d="M28.988 17C22.364 17 17 22.376 17 29C17 35.624 22.364 41 28.988 41C35.624 41 41 35.624 41 29C41 22.376 35.624 17 28.988 17ZM33.8 33.8C33.689 33.9112 33.5571 33.9995 33.4119 34.0597C33.2668 34.1199 33.1112 34.1509 32.954 34.1509C32.7968 34.1509 32.6412 34.1199 32.4961 34.0597C32.3509 33.9995 32.219 33.9112 32.108 33.8L28.16 29.852C28.0466 29.7409 27.9564 29.6083 27.8946 29.4621C27.8328 29.3158 27.8007 29.1588 27.8 29V24.2C27.8 23.54 28.34 23 29 23C29.66 23 30.2 23.54 30.2 24.2V28.508L33.8 32.108C34.268 32.576 34.268 33.332 33.8 33.8Z" fill="url(#paint0_linear_5_114)"/>
<circle cx="29" cy="29" r="28" stroke="url(#paint1_linear_5_114)" stroke-width="2"/>
<defs>
<linearGradient id="paint0_linear_5_114" x1="41" y1="29" x2="12.8377" y2="29" gradientUnits="userSpaceOnUse">
<stop stop-color="#2B4560"/>
<stop offset="1" stop-color="#009ECF"/>
</linearGradient>
<linearGradient id="paint1_linear_5_114" x1="58" y1="29" x2="-10.0588" y2="29" gradientUnits="userSpaceOnUse">
<stop stop-color="#2B4560"/>
<stop offset="1" stop-color="#009ECF"/>
</linearGradient>
</defs>
</svg>
