<svg width="58" height="58" viewBox="0 0 58 58" fill="none" xmlns="http://www.w3.org/2000/svg">
<g clip-path="url(#clip0_0_263)">
<path d="M29.1035 17.0001C29.4965 17.0001 29.8835 17.0256 30.2435 17.0856C30.598 17.132 30.9479 17.2093 31.289 17.3166C31.631 17.4201 31.9655 17.5491 32.3 17.7111C32.6255 17.8656 32.96 18.0546 33.2945 18.2601C33.86 18.6201 34.4165 18.9111 34.9835 19.1436C36.0997 19.5903 37.28 19.8561 38.48 19.9311C39.089 19.9746 39.7145 20.0001 40.3655 20.0001V26.0001C40.3655 27.1401 40.22 28.2201 39.929 29.2491C39.6494 30.2634 39.2522 31.2415 38.7455 32.1636C38.2408 33.0843 37.6438 33.9513 36.9635 34.7511C36.2728 35.569 35.5249 36.3369 34.7255 37.0491C33.9155 37.7633 33.0624 38.427 32.171 39.0366C31.28 39.6546 30.38 40.2291 29.48 40.7511L29.12 40.9656L28.76 40.7511C27.8348 40.2154 26.9311 39.6435 26.051 39.0366C25.1546 38.4339 24.301 37.7698 23.4965 37.0491C22.6976 36.3369 21.9502 35.569 21.26 34.7511C20.5815 33.9479 19.9818 33.0814 19.469 32.1636C18.9709 31.2374 18.5741 30.2603 18.2855 29.2491C17.9926 28.1912 17.8482 27.0977 17.8565 26.0001V20.0001C18.509 20.0001 19.1345 19.9746 19.7435 19.9311C20.343 19.8894 20.9386 19.8037 21.5255 19.6746C22.1 19.5456 22.6745 19.3746 23.24 19.1436C23.8268 18.9067 24.3894 18.6139 24.92 18.2691C25.58 17.8401 26.249 17.5236 26.909 17.3151C27.6198 17.0972 28.3601 16.9909 29.1035 17.0001ZM38.8565 21.4746C37.721 21.4195 36.5961 21.2296 35.5055 20.9091C34.4206 20.5854 33.3872 20.1092 32.4365 19.4946C31.9433 19.1709 31.4077 18.9169 30.845 18.7401C30.2828 18.5702 29.6982 18.4862 29.111 18.4911C28.5194 18.4872 27.9305 18.5711 27.3635 18.7401C26.7999 18.9112 26.265 19.1655 25.7765 19.4946C24.8241 20.1125 23.788 20.5909 22.7 20.9151C21.6365 21.2241 20.5235 21.4131 19.3565 21.4821V26.0076C19.3565 27.0021 19.4855 27.9531 19.7435 28.8696C20.0063 29.7781 20.3685 30.6549 20.8235 31.4841C21.2839 32.3219 21.8266 33.1118 22.4435 33.8421C23.069 34.5786 23.7365 35.2641 24.4565 35.9151C25.1765 36.5676 25.931 37.1676 26.72 37.7241C27.5165 38.2821 28.3145 38.7876 29.111 39.2496C29.9265 38.7748 30.7218 38.2658 31.4945 37.7241C32.2887 37.1693 33.0472 36.5651 33.7655 35.9151C34.4855 35.2641 35.1545 34.5786 35.78 33.8421C36.3969 33.1118 36.9396 32.3219 37.4 31.4841C37.8529 30.6559 38.2097 29.7787 38.4635 28.8696C38.7293 27.939 38.8616 26.9754 38.8565 26.0076V21.4746Z" fill="url(#paint0_linear_0_263)"/>
<path fill-rule="evenodd" clip-rule="evenodd" d="M34.6955 24.0636L34.0355 23.4966L33.4265 23.5491L26.8865 31.2711L24.659 28.0911L24.059 27.9891L23.3645 28.4856L23.261 29.0856L26.1245 33.1746L26.45 33.3546L27.1355 33.3966L27.4865 33.2436L34.739 24.6711L34.6955 24.0636Z" fill="url(#paint1_linear_0_263)"/>
<circle cx="29" cy="29" r="28" stroke="url(#paint2_linear_0_263)" stroke-width="2"/>
</g>
<defs>
<linearGradient id="paint0_linear_0_263" x1="40.3655" y1="28.9825" x2="13.9524" y2="28.9825" gradientUnits="userSpaceOnUse">
<stop stop-color="#2B4560"/>
<stop offset="1" stop-color="#009ECF"/>
</linearGradient>
<linearGradient id="paint1_linear_0_263" x1="34.739" y1="28.4466" x2="21.2704" y2="28.4466" gradientUnits="userSpaceOnUse">
<stop stop-color="#2B4560"/>
<stop offset="1" stop-color="#009ECF"/>
</linearGradient>
<linearGradient id="paint2_linear_0_263" x1="0.640882" y1="0.640885" x2="57.1989" y2="58" gradientUnits="userSpaceOnUse">
<stop stop-color="#00AEEF"/>
<stop offset="1" stop-color="#00749F"/>
</linearGradient>
<clipPath id="clip0_0_263">
<rect width="58" height="58" fill="white"/>
</clipPath>
</defs>
</svg>
