<svg width="58" height="58" viewBox="0 0 58 58" fill="none" xmlns="http://www.w3.org/2000/svg">
<path d="M39.2974 24.1524C39.298 22.4053 38.8476 20.6875 37.9897 19.1655C37.1318 17.6434 35.8955 16.3687 34.4005 15.4645C32.9054 14.5604 31.2023 14.0575 29.4559 14.0047C27.7096 13.9518 25.9791 14.3506 24.4321 15.1626C22.8851 15.9746 21.5739 17.1722 20.6255 18.6396C19.677 20.1069 19.1235 21.7942 19.0184 23.5382C18.9133 25.2822 19.2602 27.0238 20.0256 28.5944C20.7909 30.165 21.9488 31.5115 23.3871 32.5034L19 40.1004L22.2708 40.2352L24.0222 43L29.0472 34.2953C29.082 34.2953 29.1139 34.3011 29.1487 34.3011C29.1835 34.3011 29.2154 34.2968 29.2502 34.2953L34.2752 43L36.0614 40.2946L39.2974 40.1004L34.9102 32.5034C36.2638 31.5714 37.3704 30.3243 38.1347 28.8695C38.899 27.4146 39.298 25.7958 39.2974 24.1524ZM21.8996 24.1524C21.8996 22.7187 22.3248 21.3172 23.1213 20.1251C23.9179 18.933 25.05 18.0038 26.3746 17.4552C27.6992 16.9065 29.1567 16.7629 30.5629 17.0427C31.9691 17.3224 33.2608 18.0128 34.2746 19.0266C35.2884 20.0404 35.9788 21.332 36.2585 22.7382C36.5382 24.1444 36.3946 25.6019 35.846 26.9265C35.2973 28.2511 34.3682 29.3833 33.1761 30.1798C31.984 30.9763 30.5824 31.4015 29.1487 31.4015C27.2261 31.4015 25.3823 30.6378 24.0228 29.2783C22.6634 27.9188 21.8996 26.075 21.8996 24.1524Z" fill="url(#paint0_linear_5_109)"/>
<path d="M29.1487 28.5023C31.5508 28.5023 33.4981 26.555 33.4981 24.1529C33.4981 21.7508 31.5508 19.8035 29.1487 19.8035C26.7466 19.8035 24.7993 21.7508 24.7993 24.1529C24.7993 26.555 26.7466 28.5023 29.1487 28.5023Z" fill="url(#paint1_linear_5_109)"/>
<circle cx="29" cy="29" r="28" stroke="url(#paint2_linear_5_109)" stroke-width="2"/>
<defs>
<linearGradient id="paint0_linear_5_109" x1="39.2974" y1="28.5" x2="15.4799" y2="28.5" gradientUnits="userSpaceOnUse">
<stop stop-color="#2B4560"/>
<stop offset="1" stop-color="#009ECF"/>
</linearGradient>
<linearGradient id="paint1_linear_5_109" x1="33.4981" y1="24.1529" x2="23.2906" y2="24.1529" gradientUnits="userSpaceOnUse">
<stop stop-color="#2B4560"/>
<stop offset="1" stop-color="#009ECF"/>
</linearGradient>
<linearGradient id="paint2_linear_5_109" x1="58" y1="29" x2="-10.0588" y2="29" gradientUnits="userSpaceOnUse">
<stop stop-color="#2B4560"/>
<stop offset="1" stop-color="#009ECF"/>
</linearGradient>
</defs>
</svg>
